solid
facet normal 0.26806195057769533 0.7668423232739958 -0.5831771959603888
 outer loop
  vertex 26.979306816320385 -31.25564162749665 28.199323930980096
  vertex 20.37463645430476 -45.13385388214965 6.9144358482583765
  vertex -38.20421614125939 -32.12469025218536 -2.905536995648592
 endloop
endfacet
facet normal 0.29726190703465377 0.7061215767356791 -0.6426722940149505
 outer loop
  vertex -38.20421614125939 -32.12469025218536 -2.905536995648592
  vertex -0.038169282248455165 -0.040142801916857526 49.99996931660405
  vertex 26.979306816320385 -31.25564162749665 28.199323930980096
 endloop
endfacet
facet normal -0.4763652955223274 0.5274394194981419 0.7034797537821461
 outer loop
  vertex -10.039888492171062 1.8997990954963653 -48.94477911342048
  vertex 20.37463645430476 -45.13385388214965 6.9144358482583765
  vertex 41.3951115310266 14.824023737268755 -23.805315825898223
 endloop
endfacet
facet normal -0.38545971389978484 0.5916661511174924 0.7080621262164136
 outer loop
  vertex -10.039888492171062 1.8997990954963653 -48.94477911342048
  vertex -20.66126175508049 -10.602572938411846 -44.279766369908785
  vertex 20.37463645430476 -45.13385388214965 6.9144358482583765
 endloop
endfacet
facet normal -0.7773589457313301 0.4805289978299268 0.40596176142100027
 outer loop
  vertex 41.3951115310266 14.824023737268755 -23.805315825898223
  vertex 20.37463645430476 -45.13385388214965 6.9144358482583765
  vertex 38.78243994256875 -25.370236150533504 18.7689496181116
 endloop
endfacet
facet normal -0.6045669021417982 0.739964008347205 -0.29487646088727887
 outer loop
  vertex 20.37463645430476 -45.13385388214965 6.9144358482583765
  vertex 26.979306816320385 -31.25564162749665 28.199323930980096
  vertex 38.78243994256875 -25.370236150533504 18.7689496181116
 endloop
endfacet
facet normal 0.25770094041929636 -0.9657347432882845 -0.03076736766318686
 outer loop
  vertex 3.1347506535543945 2.2678704130204634 49.8500762499897
  vertex -10.039888492171062 1.8997990954963653 -48.94477911342048
  vertex 41.3951115310266 14.824023737268755 -23.805315825898223
 endloop
endfacet
facet normal 0.5842751325629537 -0.8080915085133726 -0.07490449477250827
 outer loop
  vertex -0.038169282248455165 -0.040142801916857526 49.99996931660405
  vertex -10.039888492171062 1.8997990954963653 -48.94477911342048
  vertex 3.1347506535543945 2.2678704130204634 49.8500762499897
 endloop
endfacet
facet normal -0.7590806851778104 -0.44947090889629404 -0.4709271869895868
 outer loop
  vertex 41.3951115310266 14.824023737268755 -23.805315825898223
  vertex 38.78243994256875 -25.370236150533504 18.7689496181116
  vertex 3.1347506535543945 2.2678704130204634 49.8500762499897
 endloop
endfacet
facet normal -0.30130102238573403 0.35678257037569666 -0.8842646048471139
 outer loop
  vertex 3.1347506535543945 2.2678704130204634 49.8500762499897
  vertex 26.979306816320385 -31.25564162749665 28.199323930980096
  vertex -0.038169282248455165 -0.040142801916857526 49.99996931660405
 endloop
endfacet
facet normal -0.6369163379136112 0.04405893263427387 -0.7696729103676725
 outer loop
  vertex 3.1347506535543945 2.2678704130204634 49.8500762499897
  vertex 38.78243994256875 -25.370236150533504 18.7689496181116
  vertex 26.979306816320385 -31.25564162749665 28.199323930980096
 endloop
endfacet
facet normal 0.5306674918953036 -0.13884215212979756 0.8361308927659079
 outer loop
  vertex -20.66126175508049 -10.602572938411846 -44.279766369908785
  vertex -10.039888492171062 1.8997990954963653 -48.94477911342048
  vertex -25.357411994151175 -11.68378954613456 -41.478798425225804
 endloop
endfacet
facet normal 0.10889503345335556 0.8628843390553134 0.49353063643736195
 outer loop
  vertex -38.20421614125939 -32.12469025218536 -2.905536995648592
  vertex 20.37463645430476 -45.13385388214965 6.9144358482583765
  vertex -25.357411994151175 -11.68378954613456 -41.478798425225804
 endloop
endfacet
facet normal 0.10014473700679215 0.8602342902139424 0.4999679965657356
 outer loop
  vertex 20.37463645430476 -45.13385388214965 6.9144358482583765
  vertex -20.66126175508049 -10.602572938411846 -44.279766369908785
  vertex -25.357411994151175 -11.68378954613456 -41.478798425225804
 endloop
endfacet
facet normal 0.7281275912897839 -0.6756348227209452 -0.11553266693612872
 outer loop
  vertex -25.357411994151175 -11.68378954613456 -41.478798425225804
  vertex -0.038169282248455165 -0.040142801916857526 49.99996931660405
  vertex -38.20421614125939 -32.12469025218536 -2.905536995648592
 endloop
endfacet
facet normal 0.6393780022179228 -0.7647585530367959 -0.07962490713893645
 outer loop
  vertex -25.357411994151175 -11.68378954613456 -41.478798425225804
  vertex -10.039888492171062 1.8997990954963653 -48.94477911342048
  vertex -0.038169282248455165 -0.040142801916857526 49.99996931660405
 endloop
endfacet
endsolid
