solid
facet normal 0.647138306613312 -0.7433392637958811 -0.16928895715034756
 outer loop
  vertex -37.02630427385705 20.256478547969948 -26.8091004820264
  vertex 4.138919820344742 49.82309438890684 0.7270544923443972
  vertex -49.10650260139332 1.5191574196243611 9.286741247270282
 endloop
endfacet
facet normal 0.5969291642188922 0.7981575223338344 -0.08136425779695583
 outer loop
  vertex 2.2655990757284705 -49.910201585363744 1.9592954183614735
  vertex -35.48465042963852 -24.46105617302285 -25.34751101758466
  vertex -12.494963281889746 -35.74181395344929 32.65575949049792
 endloop
endfacet
facet normal 0.48621258105736037 0.2262438007599731 -0.8440444707710734
 outer loop
  vertex 3.7518855271866984 -11.43848488769595 48.52921201157957
  vertex -12.494963281889746 -35.74181395344929 32.65575949049792
  vertex -43.80679342297976 -0.36800789924402655 24.100402904982143
 endloop
endfacet
facet normal -0.7053807738359728 -0.6651834183934308 0.24488565453491623
 outer loop
  vertex 38.862677224451204 21.26753234962485 23.181552724219802
  vertex 4.138919820344742 49.82309438890684 0.7270544923443972
  vertex 49.963419886447824 0.26451438418547957 -1.893859918544411
 endloop
endfacet
facet normal -0.7907589591640625 0.24944396715399902 -0.5589972949417942
 outer loop
  vertex 49.963419886447824 0.26451438418547957 -1.893859918544411
  vertex 16.85638539258687 -37.91049375656482 27.904421417224256
  vertex 38.862677224451204 21.26753234962485 23.181552724219802
 endloop
endfacet
facet normal 0.2758987134427234 0.8631143756827085 0.4229816478412489
 outer loop
  vertex 14.124499702114903 -39.188141101000554 -27.654802570494457
  vertex -35.48465042963852 -24.46105617302285 -25.34751101758466
  vertex 2.2655990757284705 -49.910201585363744 1.9592954183614735
 endloop
endfacet
facet normal 0.36296595595755615 -0.853521112618315 0.3738414438376395
 outer loop
  vertex 4.138919820344742 49.82309438890684 0.7270544923443972
  vertex -37.02630427385705 20.256478547969948 -26.8091004820264
  vertex -0.2000601497971145 30.208628848334563 -39.84217261947486
 endloop
endfacet
facet normal -0.668940211843732 -0.6386510427657442 0.38032070486983804
 outer loop
  vertex 49.963419886447824 0.26451438418547957 -1.893859918544411
  vertex 4.138919820344742 49.82309438890684 0.7270544923443972
  vertex -0.2000601497971145 30.208628848334563 -39.84217261947486
 endloop
endfacet
facet normal -0.688073332644207 -0.5437922344977563 0.48046341650934443
 outer loop
  vertex -0.2000601497971145 30.208628848334563 -39.84217261947486
  vertex 29.578873822812685 -7.2982674886759495 -39.6462547416255
  vertex 49.963419886447824 0.26451438418547957 -1.893859918544411
 endloop
endfacet
facet normal 0.6476912418122889 0.7539073378953085 -0.11008987758765303
 outer loop
  vertex -46.77856472365911 -8.823588274990383 15.294122150286608
  vertex -12.494963281889746 -35.74181395344929 32.65575949049792
  vertex -35.48465042963852 -24.46105617302285 -25.34751101758466
 endloop
endfacet
facet normal 0.9421210397155402 0.017583214349223802 -0.3348115546071538
 outer loop
  vertex -49.10650260139332 1.5191574196243611 9.286741247270282
  vertex -43.80679342297976 -0.36800789924402655 24.100402904982143
  vertex -46.77856472365911 -8.823588274990383 15.294122150286608
 endloop
endfacet
facet normal 0.6518021949359388 0.4250507429318997 -0.6280810175524592
 outer loop
  vertex -46.77856472365911 -8.823588274990383 15.294122150286608
  vertex -43.80679342297976 -0.36800789924402655 24.100402904982143
  vertex -12.494963281889746 -35.74181395344929 32.65575949049792
 endloop
endfacet
facet normal 0.2758735183464006 0.9163133219734906 -0.29028210046278147
 outer loop
  vertex 2.2655990757284705 -49.910201585363744 1.9592954183614735
  vertex -12.494963281889746 -35.74181395344929 32.65575949049792
  vertex 5.603189265496611 -44.597631837376206 21.901038892090753
 endloop
endfacet
facet normal 0.10405172730806869 0.4941742591826311 -0.8631135728312382
 outer loop
  vertex 7.233557014546863 -33.75066220900374 36.17414067218497
  vertex -12.494963281889746 -35.74181395344929 32.65575949049792
  vertex 3.7518855271866984 -11.43848488769595 48.52921201157957
 endloop
endfacet
facet normal -0.5184532977697981 0.3508984628513583 -0.7797925665202095
 outer loop
  vertex 3.7518855271866984 -11.43848488769595 48.52921201157957
  vertex 16.85638539258687 -37.91049375656482 27.904421417224256
  vertex 7.233557014546863 -33.75066220900374 36.17414067218497
 endloop
endfacet
facet normal 0.028057637963542385 0.794318010800343 -0.6068539088364621
 outer loop
  vertex 7.233557014546863 -33.75066220900374 36.17414067218497
  vertex 5.603189265496611 -44.597631837376206 21.901038892090753
  vertex -12.494963281889746 -35.74181395344929 32.65575949049792
 endloop
endfacet
facet normal -0.15978280509251985 0.7946560921051294 -0.5856544633800463
 outer loop
  vertex 16.85638539258687 -37.91049375656482 27.904421417224256
  vertex 5.603189265496611 -44.597631837376206 21.901038892090753
  vertex 7.233557014546863 -33.75066220900374 36.17414067218497
 endloop
endfacet
facet normal -0.41877435629057 -0.8185009487777573 -0.39329916776333246
 outer loop
  vertex 4.138919820344742 49.82309438890684 0.7270544923443972
  vertex 38.862677224451204 21.26753234962485 23.181552724219802
  vertex 1.2797091746434823 34.05460172310005 36.587517624312326
 endloop
endfacet
facet normal 0.40727761224666037 -0.21111268213946363 -0.8885698520670959
 outer loop
  vertex 3.7518855271866984 -11.43848488769595 48.52921201157957
  vertex -43.80679342297976 -0.36800789924402655 24.100402904982143
  vertex 1.2797091746434823 34.05460172310005 36.587517624312326
 endloop
endfacet
facet normal 0.6218996845235726 -0.733920392702456 -0.2731330070953592
 outer loop
  vertex -49.10650260139332 1.5191574196243611 9.286741247270282
  vertex 4.138919820344742 49.82309438890684 0.7270544923443972
  vertex 1.2797091746434823 34.05460172310005 36.587517624312326
 endloop
endfacet
facet normal 0.629493588974066 -0.7099994319006476 -0.31565586980334626
 outer loop
  vertex 1.2797091746434823 34.05460172310005 36.587517624312326
  vertex -43.80679342297976 -0.36800789924402655 24.100402904982143
  vertex -49.10650260139332 1.5191574196243611 9.286741247270282
 endloop
endfacet
facet normal 0.21910656535921155 0.620047852217734 0.753347843945056
 outer loop
  vertex -35.48465042963852 -24.46105617302285 -25.34751101758466
  vertex 14.124499702114903 -39.188141101000554 -27.654802570494457
  vertex 1.0234866480062277 -8.256460886544975 -49.30297484645633
 endloop
endfacet
facet normal -0.29836596342390914 0.45922101605171894 0.8367160870250729
 outer loop
  vertex 1.0234866480062277 -8.256460886544975 -49.30297484645633
  vertex 14.124499702114903 -39.188141101000554 -27.654802570494457
  vertex 29.578873822812685 -7.2982674886759495 -39.6462547416255
 endloop
endfacet
facet normal -0.8165582948732532 0.4600042931980206 0.34875292301724853
 outer loop
  vertex 49.963419886447824 0.26451438418547957 -1.893859918544411
  vertex 29.578873822812685 -7.2982674886759495 -39.6462547416255
  vertex 24.207937027515886 -43.52299448084293 -4.441253909915684
 endloop
endfacet
facet normal -0.7444612599495958 0.5188069155844955 0.4202580359445403
 outer loop
  vertex 29.578873822812685 -7.2982674886759495 -39.6462547416255
  vertex 14.124499702114903 -39.188141101000554 -27.654802570494457
  vertex 24.207937027515886 -43.52299448084293 -4.441253909915684
 endloop
endfacet
facet normal -0.8220494592229809 0.4994342794744691 -0.27349604581606396
 outer loop
  vertex 24.207937027515886 -43.52299448084293 -4.441253909915684
  vertex 16.85638539258687 -37.91049375656482 27.904421417224256
  vertex 49.963419886447824 0.26451438418547957 -1.893859918544411
 endloop
endfacet
facet normal -0.19831944197932871 0.9443352322919919 0.26248879592286845
 outer loop
  vertex 24.207937027515886 -43.52299448084293 -4.441253909915684
  vertex 14.124499702114903 -39.188141101000554 -27.654802570494457
  vertex 2.2655990757284705 -49.910201585363744 1.9592954183614735
 endloop
endfacet
facet normal 0.04351535282107407 -0.18396702320272987 0.9819687105212588
 outer loop
  vertex -0.015966365468291957 -0.9062904219948601 -49.99178315229587
  vertex 7.56450346081137 5.635529489972449 -49.10212922836467
  vertex -6.246179671137008 -0.3273750038039007 -49.6072380315893
 endloop
endfacet
facet normal 0.0708087269351508 0.10299209456834515 0.9921586328033681
 outer loop
  vertex -6.246179671137008 -0.3273750038039007 -49.6072380315893
  vertex 1.0234866480062277 -8.256460886544975 -49.30297484645633
  vertex -0.015966365468291957 -0.9062904219948601 -49.99178315229587
 endloop
endfacet
facet normal 0.5523962628229746 0.1542284180369689 0.8191898216463784
 outer loop
  vertex -6.246179671137008 -0.3273750038039007 -49.6072380315893
  vertex -36.54243559293712 12.776780979870711 -31.644972250397956
  vertex -35.48465042963852 -24.46105617302285 -25.34751101758466
 endloop
endfacet
facet normal 0.38212287382865745 0.38262236714790787 0.8411790733577836
 outer loop
  vertex -35.48465042963852 -24.46105617302285 -25.34751101758466
  vertex 1.0234866480062277 -8.256460886544975 -49.30297484645633
  vertex -6.246179671137008 -0.3273750038039007 -49.6072380315893
 endloop
endfacet
facet normal 0.7070437087164335 0.1373981385966822 0.6936936971565173
 outer loop
  vertex -35.48465042963852 -24.46105617302285 -25.34751101758466
  vertex -36.54243559293712 12.776780979870711 -31.644972250397956
  vertex -42.90858864628914 8.336172151910123 -24.27676366893381
 endloop
endfacet
facet normal 0.9005183106244398 -0.4274952996600656 0.07946408621922058
 outer loop
  vertex -42.90858864628914 8.336172151910123 -24.27676366893381
  vertex -37.02630427385705 20.256478547969948 -26.8091004820264
  vertex -49.10650260139332 1.5191574196243611 9.286741247270282
 endloop
endfacet
facet normal 0.8035914527843352 -0.2856165871517716 0.522172329940735
 outer loop
  vertex -42.90858864628914 8.336172151910123 -24.27676366893381
  vertex -36.54243559293712 12.776780979870711 -31.644972250397956
  vertex -37.02630427385705 20.256478547969948 -26.8091004820264
 endloop
endfacet
facet normal 0.9749829418813273 0.22222817053701546 0.004785735074517127
 outer loop
  vertex -49.10650260139332 1.5191574196243611 9.286741247270282
  vertex -46.77856472365911 -8.823588274990383 15.294122150286608
  vertex -46.10620613221946 -11.102925207227223 -15.841174449390005
 endloop
endfacet
facet normal 0.7719285819517533 0.6350095743395349 -0.029817861477274478
 outer loop
  vertex -46.10620613221946 -11.102925207227223 -15.841174449390005
  vertex -46.77856472365911 -8.823588274990383 15.294122150286608
  vertex -35.48465042963852 -24.46105617302285 -25.34751101758466
 endloop
endfacet
facet normal 0.9824375573157409 -0.09088928568154026 0.162958840581846
 outer loop
  vertex -46.10620613221946 -11.102925207227223 -15.841174449390005
  vertex -42.90858864628914 8.336172151910123 -24.27676366893381
  vertex -49.10650260139332 1.5191574196243611 9.286741247270282
 endloop
endfacet
facet normal 0.7578170193640558 0.1508139158577985 0.6347980213783082
 outer loop
  vertex -35.48465042963852 -24.46105617302285 -25.34751101758466
  vertex -42.90858864628914 8.336172151910123 -24.27676366893381
  vertex -46.10620613221946 -11.102925207227223 -15.841174449390005
 endloop
endfacet
facet normal 0.3388081781592042 -0.22160953113855258 -0.9143840736369984
 outer loop
  vertex 3.7518855271866984 -11.43848488769595 48.52921201157957
  vertex 1.2797091746434823 34.05460172310005 36.587517624312326
  vertex 13.449953844673068 7.088474409811381 47.632470774857076
 endloop
endfacet
facet normal -0.43707796049741615 -0.5027313972644429 -0.7458042629617775
 outer loop
  vertex 13.449953844673068 7.088474409811381 47.632470774857076
  vertex 1.2797091746434823 34.05460172310005 36.587517624312326
  vertex 38.862677224451204 21.26753234962485 23.181552724219802
 endloop
endfacet
facet normal -0.605227970216836 0.28075628452077694 -0.7448993306274998
 outer loop
  vertex 13.449953844673068 7.088474409811381 47.632470774857076
  vertex 16.85638539258687 -37.91049375656482 27.904421417224256
  vertex 3.7518855271866984 -11.43848488769595 48.52921201157957
 endloop
endfacet
facet normal -0.7376740878158665 0.2234702060745231 -0.6371012534613626
 outer loop
  vertex 13.449953844673068 7.088474409811381 47.632470774857076
  vertex 38.862677224451204 21.26753234962485 23.181552724219802
  vertex 16.85638539258687 -37.91049375656482 27.904421417224256
 endloop
endfacet
facet normal -0.09162881492264623 0.965941188206056 -0.24199541566514082
 outer loop
  vertex 2.2655990757284705 -49.910201585363744 1.9592954183614735
  vertex 5.603189265496611 -44.597631837376206 21.901038892090753
  vertex 13.178427440071575 -47.85201211563701 6.042680422767486
 endloop
endfacet
facet normal -0.23643027071468312 0.9603401659433456 0.14780897390107614
 outer loop
  vertex 13.178427440071575 -47.85201211563701 6.042680422767486
  vertex 24.207937027515886 -43.52299448084293 -4.441253909915684
  vertex 2.2655990757284705 -49.910201585363744 1.9592954183614735
 endloop
endfacet
facet normal -0.33867342670818135 0.8766710434801476 -0.3416843449225721
 outer loop
  vertex 13.178427440071575 -47.85201211563701 6.042680422767486
  vertex 5.603189265496611 -44.597631837376206 21.901038892090753
  vertex 16.85638539258687 -37.91049375656482 27.904421417224256
 endloop
endfacet
facet normal -0.5590104201314151 0.786187997562148 -0.26346875084859483
 outer loop
  vertex 16.85638539258687 -37.91049375656482 27.904421417224256
  vertex 24.207937027515886 -43.52299448084293 -4.441253909915684
  vertex 13.178427440071575 -47.85201211563701 6.042680422767486
 endloop
endfacet
facet normal -0.562027927477318 -0.4425771459423481 0.6987489381924499
 outer loop
  vertex 29.578873822812685 -7.2982674886759495 -39.6462547416255
  vertex -0.2000601497971145 30.208628848334563 -39.84217261947486
  vertex 9.247789103695498 3.7632959294887676 -48.99301991550086
 endloop
endfacet
facet normal -0.5368335132275548 -0.4407294997250182 0.7194214947775023
 outer loop
  vertex -0.2000601497971145 30.208628848334563 -39.84217261947486
  vertex 7.56450346081137 5.635529489972449 -49.10212922836467
  vertex 9.247789103695498 3.7632959294887676 -48.99301991550086
 endloop
endfacet
facet normal -0.32006540924590937 0.19509199893949805 0.9270907429987851
 outer loop
  vertex 9.247789103695498 3.7632959294887676 -48.99301991550086
  vertex 1.0234866480062277 -8.256460886544975 -49.30297484645633
  vertex 29.578873822812685 -7.2982674886759495 -39.6462547416255
 endloop
endfacet
facet normal -0.14286730454276203 0.07229997848060714 0.9870975870725192
 outer loop
  vertex -0.015966365468291957 -0.9062904219948601 -49.99178315229587
  vertex 1.0234866480062277 -8.256460886544975 -49.30297484645633
  vertex 9.247789103695498 3.7632959294887676 -48.99301991550086
 endloop
endfacet
facet normal -0.09395473637254462 -0.026473409171600782 0.9952244300257096
 outer loop
  vertex 9.247789103695498 3.7632959294887676 -48.99301991550086
  vertex 7.56450346081137 5.635529489972449 -49.10212922836467
  vertex -0.015966365468291957 -0.9062904219948601 -49.99178315229587
 endloop
endfacet
facet normal -0.41778869793061024 -0.43299882433528025 0.7987268757251821
 outer loop
  vertex -1.4048095023273264 24.29155695445571 -43.68005003420446
  vertex 7.56450346081137 5.635529489972449 -49.10212922836467
  vertex -0.2000601497971145 30.208628848334563 -39.84217261947486
 endloop
endfacet
facet normal 0.0711591750036911 -0.24668091157826033 0.9664806773421352
 outer loop
  vertex -1.4048095023273264 24.29155695445571 -43.68005003420446
  vertex -6.246179671137008 -0.3273750038039007 -49.6072380315893
  vertex 7.56450346081137 5.635529489972449 -49.10212922836467
 endloop
endfacet
facet normal 0.3933457393258268 -0.2875941199206078 0.8732518259593333
 outer loop
  vertex -36.54243559293712 12.776780979870711 -31.644972250397956
  vertex -6.246179671137008 -0.3273750038039007 -49.6072380315893
  vertex -1.4048095023273264 24.29155695445571 -43.68005003420446
 endloop
endfacet
facet normal 0.40678339456549906 -0.5539692057981714 0.7263920352902508
 outer loop
  vertex -1.4048095023273264 24.29155695445571 -43.68005003420446
  vertex -0.2000601497971145 30.208628848334563 -39.84217261947486
  vertex -37.02630427385705 20.256478547969948 -26.8091004820264
 endloop
endfacet
facet normal 0.4202736125135006 -0.4733330581882888 0.7741614215723837
 outer loop
  vertex -37.02630427385705 20.256478547969948 -26.8091004820264
  vertex -36.54243559293712 12.776780979870711 -31.644972250397956
  vertex -1.4048095023273264 24.29155695445571 -43.68005003420446
 endloop
endfacet
endsolid
